<svg version="1.2" xmlns="http://www.w3.org/2000/svg" viewBox="0 0 1221 630" width="400" height="206">
	<title>BANKSTORE-ai</title>
	<style>
		tspan { white-space:pre } 
		.t0 { font-size: 321px;fill: #2c2e35;font-family: "Malvie Trial" } 
		.s1 { fill: #070607 } 
		.s2 { fill: #ec1e24 } 
		.s3 { fill: #ec1c24 } 
	</style>
	<g id="Layer 1">
		<text id="BankStore
" style="transform: matrix(1,0,0,1,85.882,329.378)" >
			<tspan x="0" y="0" class="t0">BankStore
</tspan>
		</text>
		<g id="&lt;Group&gt;">
			<g id="&lt;Group&gt;">
				<path id="&lt;Path&gt;" class="s1" d="m395.1 519.5c9.9-24.7 27.5-37.9 54.7-38 7.7 0 17.4-5.7 22.7-2.6 13 7.6 23.5-24.6 33.9-1.8 4.8 10.6-28.2 46.6-41.6 47.6-9.7 0.7-19.5-0.2-29.2 0.5-6.1 0.4-15.2-3.2-16.4 6.9-0.8 7.3 4.4 12.9 10.4 16.6 11.8 7.2 25.1 10.5 38.8 11.4 80 5 160 0.5 240-2.1 5.7-0.2 11.7-1.5 17.1-3.5 7.1-2.7 20.3 0.3 16.8-14-2.6-10.4-7.1-19.7-21.5-19.1-33.1 1.4-66.3-1.1-99 7.3-7 1.8-19 6.9-21-7.1-1.6-11.5 9.9-10.1 16.3-12.5 6.3-2.4 13.6-1.8 20.1-3.7 9.7-2.8 23.2-0.4 27.1-13.1 4.6-15.2-11.1-15.5-18.6-21.7-1.5-1.3-4.2-2.3-4.4-3.7-3.3-24-5.4-48.7-40-44.8-0.3 0-1-1.5-1.2-2.4-2.3-8.2 3-13.2 8.6-16.9 13.2-8.9 20.6-28.1 38.2-27.1 8.8 0.5 18.3 11.4 21.5 21.9 2.3 7.6-4.5 9.5-11 8.8-6.3-0.6-10.3-10.5-18.2-4.4 12 39.4 40.3 48.7 69.3 22.4 16.4-14.9 38-9.7 42.8 11.8 5 22.8 11.7 46.3 6.3 69.5-4.1 17.5 2.1 29 13.2 40.3q0 2.9 0 5.9c-9.2 22.4-29.7 24.3-49.6 26.4-10.3 1.1-20.8 0.4-31.2 0.5-12.1 1.6-24.7-3.2-36.3 3.3q-5.9 0-11.7 0.1-76.3-7-152.6 1.1-5.8 0-11.7 0.1c-7.8-5.9-16.9-2.7-25.2-3-29.4-1.2-49.4-14.1-57.3-43.3q0-8.8-0.1-17.6z"/>
				<path id="&lt;Path&gt;" class="s2" d="m489.4 583.3c11-12.8 25.7-6.1 38.1-5.6 38.2 1.6 76.8-8.4 114.5 4.5q-76.3 0.5-152.6 1.1z"/>
				<path id="&lt;Path&gt;" class="s2" d="m689.4 576.9l0.3 2.5-0.8 2.4q-17.6 0.1-35.2 0.3c10.6-10.5 23.5-5.3 35.7-5.2z"/>
				<path id="&lt;Path&gt;" class="s3" d="m513 459.7c2.6-12.8 7-22.9 21.3-23.7 6.4-0.3 14.1 6.7 11.1 8.6-12.3 7.7-2.8 28.4-18.7 30.8-8.6 1.3-10.1-9.7-13.7-15.7z"/>
				<path id="&lt;Path&gt;" class="s3" d="m588.3 425.2c-19.5 0.4-2.6 26.8-20.8 27.3-9.9 0.4-13.9-10.6-12.7-19.3 1.6-11 8-19.8 20.7-20.5 6.9-0.5 10 4 12.8 12.5z"/>
			</g>
		</g>
	</g>
</svg>